<svg xmlns="http://www.w3.org/2000/svg" viewBox="0 0 256 256">
  <style>
    path { fill: #000; }
    @media (prefers-color-scheme: dark) {
      path { fill: #fff; }
    }
  </style>
  <path d="M128 24C70.947 24 24 70.947 24 128C24 185.053 70.947 232 128 232C185.053 232 232 185.053 232 128C231.94 70.97 185.03 24.06 128 24ZM216 128C216.009 139.29 213.835 150.475 209.6 160.94L164.9 133.45C162.999 132.277 160.873 131.517 158.66 131.22L135.84 128.14C129.424 127.303 123.099 130.41 119.84 136L111.12 136L107.32 128.14C105.193 123.708 101.127 120.503 96.32 119.47L88.32 117.74L96.14 104L112.85 104C115.554 103.995 118.213 103.307 120.58 102L132.83 95.24C133.906 94.64 134.912 93.922 135.83 93.1L162.74 68.76C168.278 63.797 169.64 55.585 166 49.1L165.64 48.45C196.323 62.999 215.976 94.043 216 128ZM143.31 41.34L152 56.9L125.09 81.24L112.85 88L96.14 88C90.422 87.992 85.119 91.048 82.26 96L73.53 111.23L63.38 84.19L74.32 58.32C93.891 43.198 118.964 37.021 143.32 41.32L143.31 41.34ZM40 128C39.987 114.921 42.905 102.003 48.54 90.2L59.88 120.47C61.798 125.558 66.183 129.331 71.5 130.47L92.93 135.08L96.74 143C99.433 148.486 105.029 151.983 111.14 152L112.62 152L105.39 168.23C102.791 174.06 103.919 180.911 108.25 185.6L108.39 185.74L128 205.94L126.06 215.94C78.566 214.835 40.079 175.507 40 128ZM142.58 214.78L143.71 208.97C144.651 203.969 143.165 198.806 139.71 195.07C139.661 195.026 139.614 194.979 139.57 194.93L120 174.74L133.7 144L156.52 147.08L202.24 175.2C188.852 196.226 167.157 210.619 142.58 214.78Z"/>
</svg>